<svg id="logo" xmlns="http://www.w3.org/2000/svg" viewBox="0 0 179.9 31.74">
    <defs>
        <style>
        <!-- .cls-1{fill:#fff;}.cls-2{fill:#70c5e1;} -->
        </style>
    </defs>
    <title>Appvelox</title>
    <g id="Слой_2" data-name="Слой 2">
        <g id="Слой_1-2" data-name="Слой 1">
        <path class="cls-1" d="M63,25.56a7.38,7.38,0,0,1-4.83-1.46v7.64H56V8.44A19.66,19.66,0,0,1,63,7c5.42,0,8,2,8,9.17S68.5,25.56,63,25.56ZM63,9.2a15,15,0,0,0-4.83.73v11c0,1.63,2.22,2.5,4.83,2.5,4.1,0,5.45-1.42,5.45-7.12C68.5,10.31,67.14,9.2,63,9.2Z"/>
        <path class="cls-1" d="M83.78,25.56a7.38,7.38,0,0,1-4.83-1.46v7.64H76.69V8.44A19.66,19.66,0,0,1,83.78,7c5.42,0,8,2,8,9.17S89.23,25.56,83.78,25.56Zm0-16.36a15,15,0,0,0-4.83.73v11c0,1.63,2.22,2.5,4.83,2.5,4.1,0,5.45-1.42,5.45-7.12C89.23,10.31,87.87,9.2,83.78,9.2Z"/>
        <path class="cls-1" d="M109.13,7.54h2.46a179,179,0,0,1-6.53,17.54h-3.19A127.51,127.51,0,0,0,95.65,7.54h2.54a138.42,138.42,0,0,1,5.38,15.38A136.77,136.77,0,0,0,109.13,7.54Z"/>
        <path class="cls-1" d="M130.55,16.53H118c0,5.7,1.84,6.91,5.9,6.91a17.45,17.45,0,0,0,5-.94l.52,2.08a23.22,23.22,0,0,1-5.76,1c-5.31,0-8.2-2.15-8.2-9.34,0-6.87,2.67-9.17,7.88-9.17C128.36,7,130.55,9.06,130.55,16.53Zm-12.5-2H128c-.21-4.37-1.35-5.31-4.58-5.31C119.72,9.17,118.33,10.35,118.05,14.48Z"/>
        <path class="cls-1" d="M138.05,20.56a4.5,4.5,0,0,0,1.67,3.79L138,25.8a6,6,0,0,1-2.19-5.1V0h2.26Z"/>
        <path class="cls-1" d="M143.92,16.22c0-7.15,2.54-9.17,8-9.17s8,2,8,9.17-2.5,9.34-8,9.34S143.92,23.4,143.92,16.22Zm2.5.07c0,5.69,1.35,7.19,5.45,7.19s5.49-1.49,5.49-7.19c0-6-1.35-7.15-5.49-7.15S146.42,10.31,146.42,16.29Z"/>
        <path class="cls-1" d="M177.09,25.07c-1.39-2.22-3-4.65-4.76-7-1.8,2.39-3.68,4.72-5.56,7H164c2.47-2.85,4.86-5.87,7-8.79-2.25-3.06-4.72-6.08-7-8.75h3.13c1.67,2.08,3.51,4.41,5.28,6.88,1.81-2.43,3.37-4.79,4.72-6.88h2.74q-2.92,4.32-6.15,8.65c2.12,2.85,4.2,5.9,6.18,8.89Z"/>
        <path class="cls-1" d="M43,7c-5.42,0-8,2-8,9.17v8.86h2.52V18.58H48.51v6.49H51V16.22C51,9.06,48.47,7,43,7Zm-5.44,9.48v-.31h0c0-5.91,1.37-7.08,5.45-7.08s5.48,1.17,5.49,7.08h0v.31Z"/>
        <polygon class="cls-2" points="10.85 1.3 0 26.48 6.94 26.48 17.79 1.3 10.85 1.3"/>
        <polygon class="cls-2" points="14.68 26.48 21.61 26.48 32.46 1.3 25.52 1.3 14.68 26.48"/>
        </g>
    </g>
    </svg>